# xmcd CD database file
#
# Track frame offsets:
#	150
#	19729
#	36549
#	52314
#	72549
#	87472
#	106316
#	129143
#	143223
#	156797
#	179159
#	196607
#	222496
#	235790
#	247514
#	259306
#	279164
#	305369
#	319456
#
# Disc length: 4471 seconds
#
# Revision: 0
# Processed by: cddbd v1.4PL0 Copyright (c) Steve Scherf et al.
# Submitted via: CDex 1.50
#
DISCID=1a117513
DTITLE=Silver Leaf Jazz Bnd - Here Comes The Hot Talame Man
DYEAR=1997
DGENRE=Jazz
TTITLE0=Memphis Blues
TTITLE1=Trackin' 'Em Down
TTITLE2=Blame It On The Blues
TTITLE3=Mister Johnson
TTITLE4=Indianola
TTITLE5=Kansas City Blues
TTITLE6=Play That Barber Shop Cord
TTITLE7=Sweetie Dear
TTITLE8=That's A Plenty
TTITLE9=Weary Blues
TTITLE10=Here Comes The Hot Tamale Man
TTITLE11=My Daddy Rocks Me
TTITLE12=Messin' Around
TTITLE13=My Baby Knows How
TTITLE14=Blue Grass Blues
TTITLE15=Flamin' Mamie
TTITLE16=Deep Henderson
TTITLE17=Everything Is Hotsy Totsy Now
TTITLE18=St. Louis Shuffle
EXTD=YEAR: 1997
EXTT0=
EXTT1=
EXTT2=
EXTT3=
EXTT4=
EXTT5=
EXTT6=
EXTT7=
EXTT8=
EXTT9=
EXTT10=
EXTT11=
EXTT12=
EXTT13=
EXTT14=
EXTT15=
EXTT16=
EXTT17=
EXTT18=
PLAYORDER=
